<mxfile host="app.diagrams.net" agent="Mozilla/5.0 (Macintosh; Intel Mac OS X 10_15_7) AppleWebKit/537.36 (KHTML, like Gecko) Chrome/131.0.0.0 Safari/537.36" border="50" scale="3" compressed="false" locked="false" version="26.0.9">
  <diagram name="Blank" id="YmL12bMKpDGza6XwsDPr">
    <mxGraphModel dx="1642" dy="765" grid="0" gridSize="10" guides="1" tooltips="1" connect="1" arrows="1" fold="1" page="0" pageScale="1" pageWidth="827" pageHeight="1169" background="none" math="1" shadow="0">
      <root>
        <mxCell id="X5NqExCQtvZxIxQ7pmgY-0" />
        <mxCell id="1" parent="X5NqExCQtvZxIxQ7pmgY-0" />
        <mxCell id="Gr0Zq-AI6Quabplr0KPa-179" value="Mindmap" style="swimlane;html=1;startSize=20;horizontal=1;containerType=tree;labelBackgroundColor=none;strokeColor=#D4E1F5;strokeWidth=1;fillColor=none;fontFamily=Comic Sans MS;fontSize=9;swimlaneLine=0;dashed=1;collapsible=0;" parent="1" vertex="1">
          <mxGeometry x="-126" y="7" width="1929" height="1333" as="geometry" />
        </mxCell>
        <mxCell id="Gr0Zq-AI6Quabplr0KPa-180" value="&lt;font style=&quot;font-size: 21px;&quot; face=&quot;Comic Sans MS&quot;&gt;test-automation&lt;/font&gt;&lt;div&gt;&lt;font style=&quot;font-size: 21px;&quot; face=&quot;Comic Sans MS&quot;&gt;goals-and-objectives&lt;/font&gt;&lt;/div&gt;" style="ellipse;whiteSpace=wrap;html=1;align=center;container=1;recursiveResize=0;treeFolding=1;strokeWidth=2;" parent="Gr0Zq-AI6Quabplr0KPa-179" vertex="1">
          <mxGeometry x="916" y="396" width="251" height="132" as="geometry" />
        </mxCell>
        <mxCell id="LOwCwb96JFW9hj6CmI3m-11" value="&lt;font style=&quot;font-size: 20px;&quot;&gt;Are our &lt;b&gt;test runs fast?&lt;/b&gt;&lt;/font&gt;" style="rounded=1;whiteSpace=wrap;html=1;fillColor=#dae8fc;strokeColor=#6c8ebf;" vertex="1" parent="Gr0Zq-AI6Quabplr0KPa-179">
          <mxGeometry x="1254" y="333" width="135" height="63" as="geometry" />
        </mxCell>
        <mxCell id="LOwCwb96JFW9hj6CmI3m-14" value="" style="endArrow=classic;html=1;rounded=0;entryX=0;entryY=0.5;entryDx=0;entryDy=0;" edge="1" parent="Gr0Zq-AI6Quabplr0KPa-179" target="LOwCwb96JFW9hj6CmI3m-11">
          <mxGeometry width="50" height="50" relative="1" as="geometry">
            <mxPoint x="1169" y="460" as="sourcePoint" />
            <mxPoint x="1219" y="410" as="targetPoint" />
          </mxGeometry>
        </mxCell>
        <mxCell id="LOwCwb96JFW9hj6CmI3m-15" value="&lt;font style=&quot;font-size: 20px;&quot;&gt;Are our &lt;b&gt;test results reliable?&lt;/b&gt;&lt;/font&gt;" style="rounded=1;whiteSpace=wrap;html=1;fillColor=#ffe6cc;strokeColor=#d79b00;" vertex="1" parent="Gr0Zq-AI6Quabplr0KPa-179">
          <mxGeometry x="1252" y="604" width="158" height="77" as="geometry" />
        </mxCell>
        <mxCell id="LOwCwb96JFW9hj6CmI3m-16" value="" style="endArrow=classic;html=1;rounded=0;entryX=0;entryY=0.5;entryDx=0;entryDy=0;" edge="1" parent="Gr0Zq-AI6Quabplr0KPa-179" target="LOwCwb96JFW9hj6CmI3m-15">
          <mxGeometry width="50" height="50" relative="1" as="geometry">
            <mxPoint x="1168" y="465" as="sourcePoint" />
            <mxPoint x="1247" y="539" as="targetPoint" />
          </mxGeometry>
        </mxCell>
        <mxCell id="LOwCwb96JFW9hj6CmI3m-20" value="Are tests reporting actual&amp;nbsp;&lt;div&gt;bugs (true positives) or&amp;nbsp;&lt;/div&gt;&lt;div&gt;code changes&amp;nbsp;&lt;/div&gt;&lt;div&gt;(false positives)?&lt;/div&gt;" style="ellipse;shape=cloud;whiteSpace=wrap;html=1;" vertex="1" parent="Gr0Zq-AI6Quabplr0KPa-179">
          <mxGeometry x="1466" y="506" width="200" height="135" as="geometry" />
        </mxCell>
        <mxCell id="LOwCwb96JFW9hj6CmI3m-24" value="" style="curved=1;endArrow=classic;html=1;rounded=0;" edge="1" parent="Gr0Zq-AI6Quabplr0KPa-179">
          <mxGeometry width="50" height="50" relative="1" as="geometry">
            <mxPoint x="1410" y="636" as="sourcePoint" />
            <mxPoint x="1474" y="577" as="targetPoint" />
            <Array as="points">
              <mxPoint x="1474" y="627" />
              <mxPoint x="1424" y="577" />
            </Array>
          </mxGeometry>
        </mxCell>
        <mxCell id="LOwCwb96JFW9hj6CmI3m-25" value="&lt;div&gt;&lt;br&gt;&lt;/div&gt;&lt;div&gt;&lt;br&gt;&lt;/div&gt;Can we finish thousands of&lt;div&gt;&amp;nbsp;tests in few mins&amp;nbsp;&lt;/div&gt;&lt;div&gt;(say &amp;lt; than 5 or&amp;nbsp;&amp;nbsp;&lt;/div&gt;&lt;div&gt;9 mins?)&lt;div&gt;&lt;br&gt;&lt;/div&gt;&lt;/div&gt;" style="ellipse;shape=cloud;whiteSpace=wrap;html=1;" vertex="1" parent="Gr0Zq-AI6Quabplr0KPa-179">
          <mxGeometry x="1528" y="204" width="200" height="157" as="geometry" />
        </mxCell>
        <mxCell id="LOwCwb96JFW9hj6CmI3m-27" value="" style="curved=1;endArrow=classic;html=1;rounded=0;entryX=0.125;entryY=0.563;entryDx=0;entryDy=0;entryPerimeter=0;" edge="1" parent="Gr0Zq-AI6Quabplr0KPa-179" target="LOwCwb96JFW9hj6CmI3m-25">
          <mxGeometry width="50" height="50" relative="1" as="geometry">
            <mxPoint x="1390" y="357" as="sourcePoint" />
            <mxPoint x="1440" y="307" as="targetPoint" />
            <Array as="points">
              <mxPoint x="1440" y="357" />
              <mxPoint x="1390" y="307" />
            </Array>
          </mxGeometry>
        </mxCell>
        <mxCell id="LOwCwb96JFW9hj6CmI3m-32" value="&lt;div&gt;&lt;br&gt;&lt;/div&gt;&lt;div&gt;&lt;br&gt;&lt;/div&gt;&lt;div&gt;&lt;br&gt;&lt;/div&gt;How long does our individual&amp;nbsp;&lt;div&gt;tests take? i.e. are we creating&lt;/div&gt;&lt;div&gt;&amp;nbsp;small atomic, independent&lt;/div&gt;&lt;div&gt;&amp;nbsp;tests?&lt;/div&gt;&lt;div&gt;&amp;nbsp;or are we creating long&amp;nbsp;&lt;/div&gt;&lt;div&gt;e2e tests?&lt;br&gt;&lt;div&gt;&lt;div&gt;&lt;br&gt;&lt;/div&gt;&lt;/div&gt;&lt;/div&gt;" style="ellipse;shape=cloud;whiteSpace=wrap;html=1;align=center;" vertex="1" parent="Gr0Zq-AI6Quabplr0KPa-179">
          <mxGeometry x="1506" y="358" width="225" height="150" as="geometry" />
        </mxCell>
        <mxCell id="LOwCwb96JFW9hj6CmI3m-33" value="" style="curved=1;endArrow=classic;html=1;rounded=0;exitX=1;exitY=0.5;exitDx=0;exitDy=0;" edge="1" parent="Gr0Zq-AI6Quabplr0KPa-179" source="LOwCwb96JFW9hj6CmI3m-11">
          <mxGeometry width="50" height="50" relative="1" as="geometry">
            <mxPoint x="1443" y="516" as="sourcePoint" />
            <mxPoint x="1526" y="459" as="targetPoint" />
            <Array as="points">
              <mxPoint x="1463" y="426" />
              <mxPoint x="1476" y="459" />
            </Array>
          </mxGeometry>
        </mxCell>
        <mxCell id="LOwCwb96JFW9hj6CmI3m-34" value="&lt;font style=&quot;font-size: 20px;&quot;&gt;Do &lt;b&gt;tests run at right time&lt;/b&gt;?&lt;/font&gt;" style="rounded=1;whiteSpace=wrap;html=1;fillColor=#d5e8d4;strokeColor=#82b366;" vertex="1" parent="Gr0Zq-AI6Quabplr0KPa-179">
          <mxGeometry x="694" y="320" width="135" height="63" as="geometry" />
        </mxCell>
        <mxCell id="LOwCwb96JFW9hj6CmI3m-35" value="&lt;div&gt;&lt;br&gt;&lt;/div&gt;&lt;div&gt;i.e. Are our tests catching&lt;/div&gt;&lt;div&gt;issues&lt;/div&gt;&lt;div&gt;when they are introduced (i.e. due to&amp;nbsp;&lt;/div&gt;&lt;div&gt;code changes or bugs)&lt;/div&gt;&lt;div&gt;(proactively)&lt;/div&gt;&lt;div&gt;or are they catching them after&amp;nbsp;&lt;/div&gt;&lt;div&gt;they are already introduced and&amp;nbsp;&lt;/div&gt;&lt;div&gt;have impacted other teams?&lt;/div&gt;&lt;div&gt;(reactively?)&lt;/div&gt;" style="ellipse;shape=cloud;whiteSpace=wrap;html=1;" vertex="1" parent="Gr0Zq-AI6Quabplr0KPa-179">
          <mxGeometry x="290" y="109" width="272" height="232" as="geometry" />
        </mxCell>
        <mxCell id="LOwCwb96JFW9hj6CmI3m-36" value="" style="curved=1;endArrow=classic;html=1;rounded=0;" edge="1" parent="Gr0Zq-AI6Quabplr0KPa-179" source="Gr0Zq-AI6Quabplr0KPa-180">
          <mxGeometry width="50" height="50" relative="1" as="geometry">
            <mxPoint x="916" y="464" as="sourcePoint" />
            <mxPoint x="831" y="351" as="targetPoint" />
            <Array as="points">
              <mxPoint x="845" y="458" />
              <mxPoint x="916" y="414" />
            </Array>
          </mxGeometry>
        </mxCell>
        <mxCell id="LOwCwb96JFW9hj6CmI3m-37" value="" style="curved=1;endArrow=classic;html=1;rounded=0;" edge="1" parent="Gr0Zq-AI6Quabplr0KPa-179" target="LOwCwb96JFW9hj6CmI3m-35">
          <mxGeometry width="50" height="50" relative="1" as="geometry">
            <mxPoint x="694" y="355" as="sourcePoint" />
            <mxPoint x="609" y="247" as="targetPoint" />
            <Array as="points">
              <mxPoint x="623" y="354" />
              <mxPoint x="694" y="310" />
            </Array>
          </mxGeometry>
        </mxCell>
        <mxCell id="LOwCwb96JFW9hj6CmI3m-38" value="Tests trigger on commits using&amp;nbsp;&lt;b&gt;pre commit hooks&amp;nbsp;&lt;/b&gt;on Devs local machine" style="shape=process;whiteSpace=wrap;html=1;backgroundOutline=1;" vertex="1" parent="Gr0Zq-AI6Quabplr0KPa-179">
          <mxGeometry x="76" y="113" width="175" height="65" as="geometry" />
        </mxCell>
        <mxCell id="LOwCwb96JFW9hj6CmI3m-39" value="Tests run on &lt;b&gt;pull requests&lt;/b&gt; on &lt;b&gt;CI&lt;/b&gt;&amp;nbsp;" style="shape=process;whiteSpace=wrap;html=1;backgroundOutline=1;" vertex="1" parent="Gr0Zq-AI6Quabplr0KPa-179">
          <mxGeometry x="75" y="203" width="178" height="68" as="geometry" />
        </mxCell>
        <mxCell id="LOwCwb96JFW9hj6CmI3m-40" value="Tests run on &lt;b&gt;push to main &lt;/b&gt;and after deployment of &lt;b&gt;dev/staging environments&lt;/b&gt;" style="shape=process;whiteSpace=wrap;html=1;backgroundOutline=1;" vertex="1" parent="Gr0Zq-AI6Quabplr0KPa-179">
          <mxGeometry x="76" y="299" width="178" height="68" as="geometry" />
        </mxCell>
        <mxCell id="LOwCwb96JFW9hj6CmI3m-41" value="&lt;font style=&quot;font-size: 20px;&quot;&gt;How long does it take to &lt;b&gt;create&lt;/b&gt; tests?&lt;/font&gt;" style="rounded=1;whiteSpace=wrap;html=1;fillColor=#fff2cc;strokeColor=#d6b656;" vertex="1" parent="Gr0Zq-AI6Quabplr0KPa-179">
          <mxGeometry x="659" y="547" width="148" height="81" as="geometry" />
        </mxCell>
        <mxCell id="LOwCwb96JFW9hj6CmI3m-42" value="" style="curved=1;endArrow=classic;html=1;rounded=0;" edge="1" parent="Gr0Zq-AI6Quabplr0KPa-179" source="Gr0Zq-AI6Quabplr0KPa-180">
          <mxGeometry width="50" height="50" relative="1" as="geometry">
            <mxPoint x="894" y="686" as="sourcePoint" />
            <mxPoint x="809" y="578" as="targetPoint" />
            <Array as="points">
              <mxPoint x="868" y="538" />
              <mxPoint x="894" y="641" />
            </Array>
          </mxGeometry>
        </mxCell>
        <mxCell id="LOwCwb96JFW9hj6CmI3m-45" value="&lt;div&gt;&lt;br&gt;&lt;/div&gt;&lt;div&gt;Can we quickly create&amp;nbsp;&lt;/div&gt;&lt;div&gt;new tests in a matter&amp;nbsp;&lt;/div&gt;&lt;div&gt;of minutes?&lt;/div&gt;" style="ellipse;shape=cloud;whiteSpace=wrap;html=1;" vertex="1" parent="Gr0Zq-AI6Quabplr0KPa-179">
          <mxGeometry x="311" y="454" width="242" height="211" as="geometry" />
        </mxCell>
        <mxCell id="LOwCwb96JFW9hj6CmI3m-46" value="" style="curved=1;endArrow=classic;html=1;rounded=0;entryX=0.897;entryY=0.284;entryDx=0;entryDy=0;entryPerimeter=0;" edge="1" parent="Gr0Zq-AI6Quabplr0KPa-179" target="LOwCwb96JFW9hj6CmI3m-45">
          <mxGeometry width="50" height="50" relative="1" as="geometry">
            <mxPoint x="658" y="591" as="sourcePoint" />
            <mxPoint x="573" y="483" as="targetPoint" />
            <Array as="points">
              <mxPoint x="587" y="590" />
              <mxPoint x="658" y="546" />
            </Array>
          </mxGeometry>
        </mxCell>
        <mxCell id="LOwCwb96JFW9hj6CmI3m-47" value="&lt;font style=&quot;font-size: 20px;&quot;&gt;How much are &lt;b&gt;maintenance&lt;/b&gt; efforts?&lt;/font&gt;" style="rounded=1;whiteSpace=wrap;html=1;fillColor=#e1d5e7;strokeColor=#9673a6;" vertex="1" parent="Gr0Zq-AI6Quabplr0KPa-179">
          <mxGeometry x="1007" y="798" width="183" height="95" as="geometry" />
        </mxCell>
        <mxCell id="LOwCwb96JFW9hj6CmI3m-48" value="" style="curved=1;endArrow=classic;html=1;rounded=0;exitX=0.5;exitY=1;exitDx=0;exitDy=0;entryX=0.5;entryY=0;entryDx=0;entryDy=0;" edge="1" parent="Gr0Zq-AI6Quabplr0KPa-179">
          <mxGeometry width="50" height="50" relative="1" as="geometry">
            <mxPoint x="1058.5" y="528" as="sourcePoint" />
            <mxPoint x="1084" y="798" as="targetPoint" />
            <Array as="points">
              <mxPoint x="1219" y="789" />
              <mxPoint x="1027" y="682" />
            </Array>
          </mxGeometry>
        </mxCell>
        <mxCell id="LOwCwb96JFW9hj6CmI3m-49" value="&lt;div&gt;&lt;br&gt;&lt;/div&gt;&lt;div&gt;Is your team spending too much&lt;/div&gt;&lt;div&gt;&amp;nbsp;time maintaining tests?&lt;/div&gt;" style="ellipse;shape=cloud;whiteSpace=wrap;html=1;" vertex="1" parent="Gr0Zq-AI6Quabplr0KPa-179">
          <mxGeometry x="732" y="1012" width="242" height="211" as="geometry" />
        </mxCell>
        <mxCell id="LOwCwb96JFW9hj6CmI3m-53" value="&lt;span style=&quot;font-size: 20px;&quot;&gt;Is your setup and &lt;b&gt;way of working scaleable&lt;/b&gt;?&lt;/span&gt;" style="rounded=1;whiteSpace=wrap;html=1;fillColor=#f8cecc;strokeColor=#b85450;" vertex="1" parent="Gr0Zq-AI6Quabplr0KPa-179">
          <mxGeometry x="955" y="181.5" width="173" height="87" as="geometry" />
        </mxCell>
        <mxCell id="LOwCwb96JFW9hj6CmI3m-54" value="" style="curved=1;endArrow=classic;html=1;rounded=0;entryX=0.5;entryY=1;entryDx=0;entryDy=0;exitX=0.5;exitY=0;exitDx=0;exitDy=0;" edge="1" parent="Gr0Zq-AI6Quabplr0KPa-179" source="Gr0Zq-AI6Quabplr0KPa-180" target="LOwCwb96JFW9hj6CmI3m-53">
          <mxGeometry width="50" height="50" relative="1" as="geometry">
            <mxPoint x="1030" y="372" as="sourcePoint" />
            <mxPoint x="1080" y="322" as="targetPoint" />
            <Array as="points">
              <mxPoint x="1080" y="372" />
              <mxPoint x="1030" y="322" />
            </Array>
          </mxGeometry>
        </mxCell>
        <mxCell id="LOwCwb96JFW9hj6CmI3m-55" value="&lt;div&gt;&lt;br&gt;&lt;/div&gt;&lt;div&gt;i.e. when your tests will&amp;nbsp;&lt;/div&gt;&lt;div&gt;grow in number:&amp;nbsp;&lt;/div&gt;&lt;div&gt;- W&lt;span style=&quot;background-color: transparent; color: light-dark(rgb(0, 0, 0), rgb(255, 255, 255));&quot;&gt;ould&amp;nbsp;&lt;/span&gt;&lt;/div&gt;&lt;div&gt;&lt;span style=&quot;background-color: transparent; color: light-dark(rgb(0, 0, 0), rgb(255, 255, 255));&quot;&gt;they still f&lt;/span&gt;inish in few mins?&lt;/div&gt;&lt;div&gt;- Would you need to hire&amp;nbsp;&lt;/div&gt;&lt;div&gt;more people&lt;/div&gt;&lt;div&gt;&amp;nbsp;to maintain them?&lt;/div&gt;&lt;div&gt;- Would it work&lt;/div&gt;&lt;div&gt;&amp;nbsp;across teams?&lt;/div&gt;" style="ellipse;shape=cloud;whiteSpace=wrap;html=1;" vertex="1" parent="Gr0Zq-AI6Quabplr0KPa-179">
          <mxGeometry x="1230" y="56" width="265" height="210" as="geometry" />
        </mxCell>
        <mxCell id="LOwCwb96JFW9hj6CmI3m-56" value="" style="curved=1;endArrow=classic;html=1;rounded=0;entryX=0.125;entryY=0.563;entryDx=0;entryDy=0;entryPerimeter=0;" edge="1" parent="Gr0Zq-AI6Quabplr0KPa-179" target="LOwCwb96JFW9hj6CmI3m-55">
          <mxGeometry width="50" height="50" relative="1" as="geometry">
            <mxPoint x="1130" y="223" as="sourcePoint" />
            <mxPoint x="1180" y="173" as="targetPoint" />
            <Array as="points">
              <mxPoint x="1180" y="223" />
              <mxPoint x="1130" y="173" />
            </Array>
          </mxGeometry>
        </mxCell>
        <mxCell id="LOwCwb96JFW9hj6CmI3m-57" value="&lt;div&gt;Do we have good tooling&amp;nbsp;&lt;/div&gt;&lt;div&gt;and IDEs&lt;/div&gt;&lt;div&gt;to debug and&amp;nbsp;&lt;/div&gt;&lt;div&gt;maintain tests?&lt;/div&gt;" style="ellipse;shape=cloud;whiteSpace=wrap;html=1;" vertex="1" parent="Gr0Zq-AI6Quabplr0KPa-179">
          <mxGeometry x="1051" y="1005" width="242" height="211" as="geometry" />
        </mxCell>
        <mxCell id="LOwCwb96JFW9hj6CmI3m-59" value="Do we have good guidelines&lt;div&gt;and tools&amp;nbsp;&lt;br&gt;&lt;div&gt;in place to minimise&amp;nbsp;&lt;/div&gt;&lt;div&gt;and&amp;nbsp;&lt;/div&gt;&lt;div&gt;deal with flaky tests?&lt;/div&gt;&lt;/div&gt;" style="ellipse;shape=cloud;whiteSpace=wrap;html=1;" vertex="1" parent="Gr0Zq-AI6Quabplr0KPa-179">
          <mxGeometry x="1482" y="665" width="200" height="135" as="geometry" />
        </mxCell>
        <mxCell id="LOwCwb96JFW9hj6CmI3m-60" value="" style="curved=1;endArrow=classic;html=1;rounded=0;entryX=0.4;entryY=0.1;entryDx=0;entryDy=0;entryPerimeter=0;exitX=0.5;exitY=1;exitDx=0;exitDy=0;" edge="1" parent="Gr0Zq-AI6Quabplr0KPa-179" source="LOwCwb96JFW9hj6CmI3m-47" target="LOwCwb96JFW9hj6CmI3m-57">
          <mxGeometry width="50" height="50" relative="1" as="geometry">
            <mxPoint x="1178" y="966" as="sourcePoint" />
            <mxPoint x="1228" y="916" as="targetPoint" />
            <Array as="points">
              <mxPoint x="1056" y="984" />
              <mxPoint x="1178" y="916" />
            </Array>
          </mxGeometry>
        </mxCell>
        <mxCell id="LOwCwb96JFW9hj6CmI3m-61" value="" style="curved=1;endArrow=classic;html=1;rounded=0;entryX=0.4;entryY=0.1;entryDx=0;entryDy=0;entryPerimeter=0;" edge="1" parent="Gr0Zq-AI6Quabplr0KPa-179">
          <mxGeometry width="50" height="50" relative="1" as="geometry">
            <mxPoint x="1004" y="872" as="sourcePoint" />
            <mxPoint x="925" y="1054" as="targetPoint" />
            <Array as="points">
              <mxPoint x="833" y="1012" />
              <mxPoint x="955" y="944" />
            </Array>
          </mxGeometry>
        </mxCell>
      </root>
    </mxGraphModel>
  </diagram>
</mxfile>
